# xmcd
#
# Track frame offsets:
#	150
#	16756
#	35445
#	47356
#	66540
#	86980
#	102369
#
# Disc length: 1508 seconds
#
# Revision: 1
# Processed by: cddbd v1.5.2PL0 Copyright (c) Steve Scherf et al.
# Submitted via: audiograbber 1.83.01
#
DISCID=5505e207
DTITLE=Stranguria - Waangenaam
DYEAR=2003
DGENRE=Pop
TTITLE0=Stranguria - Wals over de doven
TTITLE1=Stranguria - Wat doet je dat
TTITLE2=Stranguria - Iedereen
TTITLE3=Stranguria - Red me van de droogte
TTITLE4=Stranguria - Nederland
TTITLE5=Stranguria - Breek eens door
TTITLE6=Stranguria - De zwemleraar
EXTD=
EXTT0=
EXTT1=
EXTT2=
EXTT3=
EXTT4=
EXTT5=
EXTT6=
PLAYORDER=
